<svg xmlns="http://www.w3.org/2000/svg" width="45" height="30" viewBox="0 0 45 30">
  <defs>
    <style>
      .cls-1 {
        fill: #ffb118;
        fill-rule: evenodd;
      }
    </style>
  </defs>
  <path id="truck" class="cls-1" d="M320.218,96.452c0-.009,0-0.017,0-0.026a1.04,1.04,0,0,0-1.036-1.033h-0.272l-4.2-8.284a1.029,1.029,0,0,0-.921-0.568h-7.172l0.274-2.212a3.077,3.077,0,0,0-.755-2.351A2.933,2.933,0,0,0,303.918,81h-22.26a1.109,1.109,0,0,0-1.089,1.01l-0.223,1.824h12.683a1.461,1.461,0,0,1,1.452,1.52,1.554,1.554,0,0,1-1.53,1.521H288.72l0,0.006H276.3a1.1,1.1,0,0,0-1.082,1.076,1.032,1.032,0,0,0,1.027,1.075h16.446A1.569,1.569,0,0,1,294,90.64a1.665,1.665,0,0,1-1.626,1.629H281.039a1.11,1.11,0,0,0-1.093,1.086,1.044,1.044,0,0,0,1.037,1.087h11.2a1.569,1.569,0,0,1,1.336,1.612,1.665,1.665,0,0,1-1.64,1.629H277.95a1.109,1.109,0,0,0-1.093,1.087,1.043,1.043,0,0,0,1.037,1.086h0.932l-0.365,3.891a3.076,3.076,0,0,0,.755,2.35,2.932,2.932,0,0,0,2.216.977h0.8a4.674,4.674,0,0,0,4.6,3.924,4.984,4.984,0,0,0,4.8-3.924h10.035a3.364,3.364,0,0,0,2.182-.834,2.933,2.933,0,0,0,2.078.834h0.165a4.673,4.673,0,0,0,4.6,3.924,4.983,4.983,0,0,0,4.8-3.924h0.663a3.526,3.526,0,0,0,3.411-3.189l0.649-7.333c0-.009,0-0.019,0-0.029s0-.03,0-0.045A0.254,0.254,0,0,0,320.218,96.452ZM286.89,108.827a2.611,2.611,0,0,1-2.593-2.716,2.779,2.779,0,0,1,2.733-2.716,2.611,2.611,0,0,1,2.593,2.716A2.779,2.779,0,0,1,286.89,108.827Zm23.858,0a2.611,2.611,0,0,1-2.593-2.716,2.777,2.777,0,0,1,2.732-2.716,2.611,2.611,0,0,1,2.593,2.716A2.777,2.777,0,0,1,310.748,108.827Zm6.695-5.079a1.294,1.294,0,0,1-1.233,1.155h-0.717a4.667,4.667,0,0,0-4.55-3.68,4.978,4.978,0,0,0-4.739,3.68h-0.219a0.9,0.9,0,0,1-.681-0.292,0.945,0.945,0,0,1-.224-0.725l1.343-15.174h3.084l-0.489,5.524a3.077,3.077,0,0,0,.755,2.35,2.93,2.93,0,0,0,2.216.978h6Z" transform="translate(-275.219 -81)"/>
</svg>
